<?xml version="1.0" standalone="no"?>
<!DOCTYPE svg PUBLIC "-//W3C//DTD SVG 20010904//EN"
 "http://www.w3.org/TR/2001/REC-SVG-20010904/DTD/svg10.dtd">
<svg version="1.0" xmlns="http://www.w3.org/2000/svg"
 width="512.000000pt" height="512.000000pt" viewBox="0 0 512.000000 512.000000"
 preserveAspectRatio="xMidYMid meet">

<g transform="translate(0.000000,512.000000) scale(0.100000,-0.100000)"
fill="#000000" stroke="none">
<path d="M2230 3061 c0 -4 -28 -11 -62 -15 -35 -3 -64 -11 -66 -16 -2 -6 -15
-10 -28 -10 -15 0 -24 -6 -24 -15 0 -8 -5 -15 -11 -15 -15 0 -35 -22 -43 -48
-4 -12 -12 -22 -17 -22 -14 0 -11 -148 4 -166 6 -8 18 -21 25 -29 6 -7 12 -18
12 -24 0 -6 7 -11 15 -11 8 0 15 -4 15 -10 0 -5 11 -12 25 -16 14 -3 25 -10
25 -15 0 -5 11 -9 25 -9 16 0 25 -6 25 -15 0 -11 11 -15 40 -15 22 0 40 -4 40
-9 0 -4 21 -11 47 -14 26 -3 49 -10 51 -16 2 -6 12 -11 22 -11 11 0 33 -13 50
-30 27 -27 30 -35 30 -95 0 -52 -4 -69 -20 -85 -11 -11 -26 -20 -34 -20 -8 0
-16 -7 -20 -15 -4 -12 -27 -15 -115 -15 -87 0 -110 3 -115 15 -3 8 -12 15 -21
15 -29 0 -55 38 -55 79 0 59 -8 71 -46 71 l-34 0 0 -80 c0 -67 3 -83 20 -100
11 -11 29 -20 40 -20 11 0 20 -4 20 -10 0 -5 11 -12 25 -16 14 -3 25 -10 25
-15 0 -5 63 -9 140 -9 87 0 140 4 140 10 0 6 11 10 24 10 13 0 29 7 36 15 7 8
19 15 26 15 8 0 14 7 14 15 0 8 7 15 15 15 8 0 15 9 15 20 0 11 5 20 10 20 6
0 10 33 10 80 0 47 -4 80 -10 80 -5 0 -10 11 -10 25 0 16 -6 25 -15 25 -8 0
-15 5 -15 11 0 14 -25 39 -39 39 -6 0 -11 4 -11 9 0 5 -11 12 -25 15 -14 4
-25 11 -25 16 0 6 -15 10 -32 10 -18 0 -42 7 -52 15 -11 8 -37 15 -58 15 -21
0 -38 5 -38 10 0 6 -11 10 -25 10 -16 0 -25 6 -25 15 0 9 -9 15 -24 15 -17 0
-26 7 -30 25 -4 14 -11 25 -16 25 -18 0 -12 105 8 127 32 35 66 53 104 53 21
0 38 5 38 10 0 6 11 10 25 10 14 0 25 -4 25 -10 0 -5 23 -10 50 -10 28 0 50
-4 50 -9 0 -5 11 -12 25 -15 19 -5 25 -13 25 -35 0 -15 5 -42 11 -60 10 -28
15 -31 50 -31 l39 0 0 71 c0 74 -8 91 -48 103 -12 4 -22 12 -22 17 0 5 -11 9
-24 9 -13 0 -26 4 -28 10 -1 5 -31 13 -65 16 -35 4 -63 11 -63 15 0 5 -11 9
-25 9 -14 0 -25 -4 -25 -9z"/>
<path d="M2740 2915 l0 -75 -50 0 -50 0 0 -35 0 -35 50 0 50 0 0 -230 c0 -170
3 -235 13 -246 6 -8 18 -21 25 -29 6 -7 12 -18 12 -24 0 -7 36 -11 100 -11 60
0 100 4 100 10 0 6 -4 10 -10 10 -5 0 -10 11 -10 25 0 23 -4 25 -45 25 -32 0
-51 6 -65 20 -19 19 -20 31 -18 233 l3 212 63 3 c64 3 67 6 56 50 -6 20 -13
22 -65 22 l-59 0 0 75 0 75 -50 0 -50 0 0 -75z"/>
<path d="M3818 2918 l-3 -73 -52 -3 -53 -3 0 -35 c0 -33 1 -34 38 -34 69 0 67
6 70 -255 2 -139 7 -235 13 -235 5 0 9 -7 9 -15 0 -8 7 -15 15 -15 8 0 15 -4
15 -10 0 -6 37 -10 90 -10 82 0 90 2 90 19 0 42 -10 51 -61 51 -36 0 -49 4
-49 14 0 8 -6 16 -12 18 -10 4 -14 53 -16 189 -2 101 -1 199 3 216 6 32 7 33
55 33 l50 0 0 34 0 35 -52 3 -53 3 -3 73 -3 72 -44 0 -44 0 -3 -72z"/>
<path d="M3230 2830 c0 -5 -18 -13 -40 -16 -22 -4 -40 -10 -40 -15 0 -5 -7 -9
-15 -9 -13 0 -15 -11 -13 -62 l3 -63 38 -3 37 -3 0 40 c0 35 3 41 21 41 11 0
27 7 35 15 11 10 36 15 80 15 48 0 66 -4 70 -15 4 -8 15 -15 25 -15 12 0 21
-9 25 -25 3 -14 10 -25 15 -25 15 0 10 -100 -5 -116 -11 -11 -45 -14 -140 -14
-105 0 -126 -2 -126 -15 0 -9 -9 -15 -21 -15 -24 0 -44 -17 -53 -48 -4 -12
-12 -22 -17 -22 -5 0 -9 -34 -9 -76 0 -75 1 -77 39 -115 l39 -39 101 0 c56 0
101 4 101 9 0 5 10 13 23 17 12 4 29 15 38 25 25 29 39 23 39 -16 l0 -35 75 0
c68 0 75 2 75 20 0 11 -4 20 -10 20 -5 0 -10 7 -10 15 0 8 -7 15 -15 15 -13 0
-15 28 -15 195 0 123 -4 195 -10 195 -5 0 -10 11 -10 24 0 14 -7 31 -15 40 -8
8 -15 19 -15 25 0 6 -7 11 -15 11 -8 0 -15 4 -15 10 0 5 -11 12 -25 16 -14 3
-25 10 -25 15 0 5 -49 9 -110 9 -66 0 -110 -4 -110 -10z m234 -326 c12 -5 16
-20 16 -61 0 -47 -4 -59 -29 -84 -16 -16 -39 -29 -50 -29 -12 0 -21 -6 -21
-15 0 -12 -14 -15 -64 -15 -44 0 -69 5 -80 15 -8 8 -19 15 -25 15 -7 0 -11 23
-11 55 0 61 15 84 72 109 33 15 163 21 192 10z"/>
<path d="M4300 2831 c0 -5 -11 -12 -25 -15 -14 -4 -25 -11 -25 -16 0 -6 -5
-10 -11 -10 -13 0 -39 -25 -39 -38 0 -6 -5 -12 -12 -14 -6 -2 -13 -30 -16 -61
-4 -46 -1 -58 12 -63 9 -3 16 -17 16 -30 0 -19 5 -24 25 -24 14 0 25 -4 25 -9
0 -5 11 -12 25 -15 14 -4 25 -11 25 -16 0 -6 18 -10 40 -10 22 0 40 -4 40 -9
0 -5 23 -12 50 -16 28 -4 50 -11 50 -16 0 -5 7 -9 15 -9 8 0 15 -7 15 -15 0
-8 5 -15 10 -15 6 0 10 -16 10 -36 0 -26 -8 -43 -29 -65 -28 -28 -34 -29 -115
-29 -70 0 -86 3 -86 15 0 8 -7 15 -15 15 -9 0 -15 9 -15 25 0 14 -4 25 -10 25
-5 0 -10 7 -10 16 0 12 -9 14 -37 12 l-38 -3 -3 -52 c-3 -44 1 -55 23 -77 14
-14 32 -26 40 -26 8 0 15 -4 15 -10 0 -6 53 -10 140 -10 80 0 140 4 140 9 0 5
10 13 23 17 26 8 57 41 57 61 0 7 5 13 10 13 6 0 10 27 10 61 0 58 -2 64 -39
100 -21 22 -48 39 -60 39 -12 0 -24 7 -27 15 -4 10 -20 15 -50 15 -24 0 -44 5
-44 10 0 6 -13 10 -29 10 -16 0 -36 7 -45 15 -8 8 -17 15 -20 15 -3 0 -15 8
-26 17 -31 27 -26 69 14 109 31 31 39 34 94 34 41 0 66 -5 76 -15 8 -8 17 -15
21 -15 15 0 35 -31 35 -54 0 -24 4 -26 40 -26 l40 0 0 65 c0 51 -3 65 -15 65
-8 0 -15 4 -15 9 0 5 -11 12 -25 15 -14 4 -25 11 -25 16 0 6 -46 10 -115 10
-63 0 -115 -4 -115 -9z"/>
</g>
</svg>
